# xmcd CD database file
#
# Track frame offsets:
#	150
#	16002
#	27922
#	39887
#	53024
#	65227
#	75567
#	87858
#	100281
#	112197
#	124505
#	139287
#
# Disc length: 1982 seconds
#
# Revision: 3
# Processed by: cddbd v1.5.1PL0 Copyright (c) Steve Scherf et al.
# Submitted via: CDex 1.51
#
DISCID=9607bc0c
DTITLE=Ernest Tubb and Friends - Country Heros and Icons
DYEAR=1979
DGENRE=Country
TTITLE0=Soldier's Last Letter
TTITLE1=Waltz Across Texas
TTITLE2=Half A Mind
TTITLE3=Driftwood On The River
TTITLE4=Thanks A Lot
TTITLE5=Set Up Two Glasses, Joe
TTITLE6=Sad Songs And Waltzes
TTITLE7=Try Me One More Time
TTITLE8=You're The Only Good Thing
TTITLE9=There's A Little Bit Of Everything In Texas
TTITLE10=Rainbows At Midnight
TTITLE11=Have You Ever Been Lonely (Have You Ever Been Blue)
EXTD=YEAR: 1979
EXTT0=
EXTT1=
EXTT2=
EXTT3=
EXTT4=
EXTT5=
EXTT6=
EXTT7=
EXTT8=
EXTT9=
EXTT10=
EXTT11=
PLAYORDER=
